<svg xmlns="http://www.w3.org/2000/svg" width="640" height="420" viewBox="0 0 640 420">
  <defs>
    <linearGradient id="bg" x1="0" y1="0" x2="1" y2="1">
      <stop offset="0%" stop-color="#26181f"/>
      <stop offset="100%" stop-color="#140f1a"/>
    </linearGradient>
    <linearGradient id="accent" x1="0" y1="0" x2="1" y2="1">
      <stop offset="0%" stop-color="#ff9a5a"/>
      <stop offset="100%" stop-color="#ffd166"/>
    </linearGradient>
  </defs>
  <rect width="640" height="420" rx="28" fill="url(#bg)"/>
  <rect x="36" y="34" width="568" height="352" rx="24" fill="#1d1622" stroke="#3c2b34"/>
  <g fill="none" stroke="url(#accent)" stroke-width="8" stroke-linejoin="round">
    <path d="M154 248c42-94 124-146 224-146 24 0 49 4 74 12"/>
    <path d="M124 262c38-16 68-8 98 18 33 29 73 42 126 42 54 0 102-22 144-64"/>
    <path d="M264 120l32-50 34 50-34 52z"/>
    <circle cx="442" cy="160" r="42"/>
  </g>
  <text x="72" y="332" fill="#fff7ef" font-family="Segoe UI, Arial, sans-serif" font-size="32" font-weight="700">OpenSCAD Objects Collection</text>
  <text x="72" y="366" fill="#d1b8ad" font-family="Segoe UI, Arial, sans-serif" font-size="18">Jeff Barr’s gallery of playful and display-oriented objects</text>
</svg>
